<svg width="546" height="275" viewBox="0 0 1017 603" fill="none" xmlns="http://www.w3.org/2000/svg">
  <g filter="url(#filter0_f)">
    <path d="M250.5 192L390.5 298L412 335L469 270L525.5 204L593 170.5L669.5 220H714L801 153L921.5 34L980.5 153L921.5 159.5V244.5L881 308.5L863 388.5L950 410L973 529L941 468.5H881H783C799 499 751 433.171 751 488C751 518.5 725.5 541.667 683.5 547L509.5 580.5L442.5 561L412 500L346.5 468.5L263 500L182.25 438.25L128 500L96 561L34 488L110 429.5L73 335L84.5 257L250.5 192Z" fill="#7A5FFF" fill-opacity="0.21"/>
  </g>
  <path d="M837.33 68.1199L838.663 63.2869L843.747 58.3699L849.413 52.7029L851.997 50.1199L856.997 47.9529L860.579 45.8699L863.913 42.5369L867.33 39.1199L871.497 37.4529L874.497 33.1199L880.163 31.4529L883.163 28.2859L886.83 26.6188L889.163 25.2859L891.83 27.9529L895.663 26.7859L899.08 29.3688L901.33 27.1188L905.33 24.9518V22.9518L901.33 23.7848L896.663 23.4518L893.663 22.6188L894.663 19.6188L897.83 17.4518L895.163 16.7848V15.2848L896.997 15.4529L897.33 12.4529L898.997 10.1199L901.33 7.78692L905.33 6.28692H906.497L909.497 2.11992C909.497 2.11992 912.33 1.28692 913.33 0.286916C914.33 -0.713084 913.33 3.11992 913.33 3.11992L915.497 4.95293L917.163 6.61992L915.33 10.4529C915.33 10.4529 917.83 10.4529 918.83 9.45293C919.83 8.45293 918.83 11.4529 918.83 11.4529V14.9529L914.997 17.4529L917.997 17.9529L919.83 16.1199L923.747 17.6199V15.8699L926.83 18.9529L928.997 22.2869L930.83 21.7869L932.663 19.4539V21.6209L933.83 24.2879H930.33V25.6209L933.163 26.4539L931.663 30.7869L927.83 31.1199L924.33 34.9529L922.497 38.9529L918.997 40.1199L916.497 39.1199H913.33L910.497 43.2869L911.747 45.7869V50.0369L908.997 52.7869L906.83 51.1199L904.663 52.7869H901.497L899.663 51.2869L897.997 50.2869L897.747 51.8699L898.997 53.1199L897.497 53.7869L896.497 54.7869L899.413 55.2869V57.5369L901.663 59.7869L905.33 58.7869H907.83L907.996 61.9539L909.496 60.4539L912.08 63.0379L914.83 65.7879L916.163 70.6209L916.83 74.4539L914.163 78.7869H911.663L908.163 80.2869L906.997 82.9529L909.83 81.7859H911.663L908.997 84.9539L910.663 86.6199L912.83 85.7869V82.6199L914.83 81.1199L918.413 81.0369L920.497 78.9539L921.497 77.2869L923.997 77.4539L925.997 77.1209L929.663 76.9539V79.2869H932.663L933.497 77.7039H936.413L938.163 75.9539L940.33 75.6209L942.163 77.1209L944.83 75.1209L946.08 78.0379L948.497 80.4549V83.9549L945.163 85.2879L942.997 89.9529H939.497L938.497 91.4529L942.413 94.0359L941.163 95.2859L943.997 99.6199L945.163 104.953V110.953L946.163 115.62L947.83 119.62L948.664 124.953L950.33 130.12L953.497 132.953V137.786L955.164 144.453L957.997 147.62L959.83 149.453L956.997 151.953L953.997 150.453L949.83 151.786L947.664 156.786L944.164 161.786L945.997 163.62L944.664 168.287V170.787L947.497 175.12V177.787L944.33 176.287L941.997 173.953L939.997 174.12L941.83 178.953V182.12L944.913 183.537L941.83 186.62H939.83V190.953L937.997 192.786L940.497 196.953L942.497 198.953L944.83 201.286L947.997 204.453L948.663 209.12L949.163 212.787L953.747 215.203L956.497 217.953H961.163L959.913 215.12V213.703L961.497 212.12L962.664 209.62L966.997 213.953L967.83 217.786L972.163 220.786L976.455 221.744L978.163 220.036H980.913L984.163 223.286L982.83 226.453L979.497 227.453L980.497 231.453L983.997 237.286L987.08 238.036L989.497 240.453L995.163 239.786L998.497 242.453L999.663 245.453L997.663 246.786L994.83 248.619L993.163 252.286L994.33 258.953L997.663 264.12L1000.58 265.203L1002 266.62L1006.83 267.787V269.787L1003.16 270.287V273.287L1001.83 276.287L1003.5 282.287L1006.33 283.454L1010.66 287.787L1013.83 290.787L1014.5 296.12L1016.16 303.12L1017 307.62V310.953L1015.16 308.453H1010.33L1007.25 306.87L1004.83 304.453H1001.5L998.497 301.453L992.663 298.786L987.163 296.453L980.83 293.12L978.997 290.62L975.997 288.62L972.663 287.953L965.497 285.786L960.83 283.286L956.33 280.286L954.163 276.286L949.33 271.453L945.997 267.953L945.996 264.453L943.663 262.12L943.163 258.287L940.33 254.287L937.246 253.62V252.203L938.663 250.786L939.83 248.286L938.247 245.536L939.747 244.036L940.997 242.786L939.33 237.786L938.497 232.453L936.497 226.286L933.33 222.119L931.997 216.619L930.497 211.452L928.83 207.285L926.83 201.118L924.83 199.451L924.663 196.118L925.83 192.118V189.785V186.952L923.83 184.952L921.663 180.785H919.497L917.413 180.035L915.497 178.118L913.163 175.118L909.663 172.951V169.118L912.83 166.119L911.746 165.035L909.163 167.618L905.497 169.618V173.118L904.497 175.785L906.496 177.618L909.413 180.535L912.163 183.285H915.497L915.163 185.452L913.663 185.285L912.08 187.535L914.163 189.618V194.951L915.83 198.951L916.163 205.284L914.997 209.12L913.663 205.787L910.663 204.287L910.664 208.454L908.164 205.954L906.497 204.287L905.163 201.454L900.497 197.121L901.83 200.788L900.497 204.788H895.997V207.455L894.497 212.955L892.663 215.122L892.83 222.455L895.83 224.455L895.33 229.122L898.33 233.789V238.789L899.247 245.372L901.997 248.122V251.122L904.33 253.455L906.497 253.122L908.413 251.372L909.83 249.955H912.33L912.163 253.122L909.497 253.955V258.455L904.497 259.288L905.663 265.121L905.163 267.621L901.997 268.953V272.453L900.83 275.62C900.83 275.62 896.913 276.537 897.663 275.787C898.413 275.037 896.163 274.287 896.163 274.287V272.12L896.83 269.953L899.58 269.036L898.33 267.786L895.33 268.953L892.163 269.453V270.953L887.497 273.12L885.163 275.953L882.497 276.62L880.33 278.787L879.497 281.287L880.329 284.454L882.163 286.287L879.997 288.62L876.497 287.287L877.58 290.87L874.997 293.453L872.663 295.62H870.663L868.663 297.453L869.997 299.62L870.997 300.62L868.163 302.453H864.33L860.58 306.203L858.163 308.62L855.496 313.12L852.663 315.953L849.83 321.62L849.33 327.12L851.997 332.453L849.497 334.953L848.664 340.286L850.163 344.119L852.497 346.452L850.497 349.785V354.285V360.285L849.497 364.452V370.119L851.164 371.952V375.952V380.452L849.664 386.119V390.786L847.164 394.953V399.119L845.83 402.786L847.33 406.161H849.872L851.83 404.203H854.579L856.747 402.035L859.163 399.619L860.83 401.286L862.83 402.286V404.453L864.414 407.369L866.414 409.369L868.164 407.619V404.953L865.83 403.953V401.453L867.664 399.453V401.119L869.664 402.619L870.664 402.286L871.664 403.286V406.286V408.453L874.997 407.12V405.454L876.83 402.954L877.997 401.954L879.83 403.287L880.247 400.537L878.664 398.954L877.164 396.12L875.33 392.787L878.33 391.121L880.164 389.287L883.83 388.454H888.164L891.747 388.871L893.33 390.454C893.33 390.454 897.164 389.787 897.997 389.787C898.83 389.787 901.163 388.786 901.163 388.786L903.247 390.87L901.663 392.454L900.497 393.62L899.497 395.454H902.33H905.33L905.997 397.62L908.497 400.12L911.581 399.704L913.164 401.287L914.83 404.454L915.33 410.787L917.497 417.454L920.913 422.37L925.163 426.62L926.83 428.288L927.663 431.12L930.997 434.454L933.33 438.454L934.164 440.788L937.247 445.538L939.83 448.12V455.12L938.83 461.12L940.664 467.12L940.497 473.286L942.33 478.12L943.663 483.454L944.663 488.286L945.663 494.786V501.12L944.663 504.454V510.954V518.954L943.663 524.954L944.663 531.12L944.33 539.12V542.954L940.997 548.454L938.83 553.12L936.33 557.788H934.163L929.997 559.453L926.497 561.453L924.08 560.453V558.203L922.83 556.953L921.579 559.787V562.869L920.163 561.453L917.997 559.287V560.953L917.33 565.119L917.997 567.953L917.08 571.203L915.663 572.619V574.287V576.953L912.497 576.787L911.163 575.453L912.33 571.619L914.33 567.619V564.287L912.58 560.369L908.997 556.787L907.163 554.953L905.663 551.119L902.497 547.953L899.497 546.953L899.413 543.703L901.497 541.619L903.33 539.787V536.453L905.663 534.119L908.33 532.787L911.081 533.703L913.497 531.287L914.997 528.287L912.33 524.119L913.663 520.619L911.997 516.953L911.663 513.119L909.33 509.953L909.997 507.287L908.163 504.119L907.33 500.453L903.997 496.953L906.497 494.453V490.785L904.414 488.703L901.997 486.285L901.33 484.119H898.497L894.497 486.285L893.497 489.619L890.83 493.953L887.83 497.785L889.164 501.953L885.664 504.785L882.164 506.785L879.164 507.785L878.33 510.785H875.164L871.997 508.953L869.664 508.119V504.285L866.997 501.953L864.83 499.785L861.247 498.869L859.33 500.785L855.497 499.785L852.33 498.953L847.497 499.619H842.997L841.164 501.453L836.164 503.285L831.164 502.285L829.081 498.203L826.664 495.785C826.664 495.785 823.831 494.119 823.831 493.451C823.831 492.783 820.664 490.285 820.664 490.285L816.664 489.619L814.997 485.619L811.163 482.619L808.497 479.953L804.83 478.953L803.497 475.453L800.163 473.953L798.163 471.953L791.497 471.285H787.997L783.997 473.453L778.997 472.619L775.163 473.953H770.997L765.329 478.119L762.663 480.785L757.413 483.869L754.83 486.453L752.997 491.953L751.663 495.285L753.497 497.619L756.08 495.535L758.163 497.619L760.497 499.953L761.83 505.285L760.497 508.119L759.497 515.285V519.785L757.663 524.453L760.163 529.285L761.663 530.785V535.453L758.163 536.453L755.913 541.703L752.663 544.953L747.163 546.953L740.997 546.453L736.497 545.619L733.164 547.619L728.497 550.285L724.997 548.453L721.83 547.285L717.664 549.119L714.164 552.619L711.664 555.119L710.247 560.035L707.33 562.953L703.497 565.619L698.164 568.119L694.08 572.203L691.997 574.285H686.664L681.83 575.785H674.997L669.997 576.453L665.497 574.953L664.163 572.453L661.83 570.119H655.497L649.664 569.285L647.33 567.785L639.664 568.869H634.913L630.997 572.785L626.664 573.785L622.497 574.953L616.497 574.453L612.415 572.703L609.831 570.119L607.415 565.035L604.331 561.953L599.997 560.287H595.831L591.081 561.535L587.831 558.287H581.331L577.497 555.453L575.58 557.369L572.997 559.953L570.914 564.203L568.664 566.453L567.997 570.787L570.081 573.287V577.035L572.997 579.953V583.953L569.081 586.537L565.331 590.287H562.164H557.331L552.831 589.119L548.164 589.953L544.831 588.953L539.997 587.285L537.331 584.619L534.164 581.453L530.331 580.287L525.831 582.119L522.997 579.285L519.414 577.703L516.497 580.619H512.831L511.664 584.119H507.331L501.831 587.619L498.497 590.953H495.164L494.497 594.453L490.581 595.369L487.831 598.119L482.831 597.953L478.664 600.285L476.497 602.453L471.664 601.619L470.164 599.119L468.331 595.785L467.414 592.369L464.831 594.953L460.498 596.619L456.498 595.285L451.998 594.119V590.119L448.498 587.953L447.165 584.953L444.332 583.119L443.665 579.119L441.332 576.953L438.207 575.578L436.165 573.537H431.915L429.832 575.619L425.665 576.287L423.997 574.619L420.331 575.285L418.331 573.285L416.498 571.453V568.953L414.665 566.787L411.997 567.619L410.164 571.453L406.497 572.119L404.33 567.787L403.163 563.953L402.33 559.619L399.497 554.619V550.619L396.83 548.119V542.619L394.83 535.953L391.997 533.119L390.164 531.287L388.247 527.203L386.164 525.119L383.331 523.953V520.953H385.664L387.664 518.287L386.831 515.953H383.831L381.331 518.453L377.831 518.619L375.248 518.703L372.498 521.453L367.831 522.787L363.831 524.953L361.997 522.287L358.497 523.953H355.664L356.664 519.453L360.664 517.619V515.287H357.331L354.331 513.453L352.498 515.287L349.165 514.287L350.248 510.369L347.831 507.953L344.498 509.953L340.831 508.953L339.914 506.037L341.998 503.953V500.787L342.831 498.453L341.498 494.287L338.998 493.119H335.998L334.498 490.119H330.331L326.998 488.119L323.331 487.785L321.331 490.619H317.164L313.497 491.619L310.497 489.953L306.83 490.619H302.33L297.997 488.369H296.247L294.33 490.285L290.997 490.953L287.83 489.285H284.997L281.164 488.119L275.497 488.285L271.33 487.453L268.33 488.285L265.663 485.953L261.83 483.953H258.33L257.163 487.619L258.33 490.119L255.997 492.453L257.83 493.619L259.663 495.453L261.913 497.703L259.83 499.785H257.497L254.664 496.953L250.331 497.119L247.498 498.285L248.665 502.453L247.498 505.453L244.665 506.285L241.332 505.453L239.999 508.953L241.082 511.369L243.415 513.703L244.998 515.285L245.665 518.119L247.998 520.453L245.665 523.619L243.498 525.785H239.831L236.081 526.035L234.164 524.119L232.831 521.41H231.123L229.331 523.203H226.414L223.164 519.953L222.539 518.078L220.081 515.619V511.369L217.997 509.285H214.164L210.997 510.453L209.83 507.953L206.663 505.453L203.83 503.953L199.997 505.787L196.497 506.287L193.664 505.453L191.664 501.619L188.831 499.119L186.831 502.453H184.664V499.787L186.664 497.787L185.331 494.953L183.664 490.619L182.997 486.119L180.497 483.119L176.497 481.619L175.331 478.787L173.164 476.619L169.164 477.287H166.831V474.119L165.664 470.787L161.581 470.035L159.498 472.119L155.665 473.453L152.332 471.619H148.832L147.165 474.119H143.665H139.832L138.997 475.953L136.83 478.119L136.497 481.285L132.414 480.537L129.997 478.119V474.785L131.081 471.535L129.331 469.785H126.497L125.33 472.453L123.163 474.035H119.913L117.33 476.619L115.163 478.785V481.785L112.33 482.953L109.33 482.785L107.163 484.953L104.496 486.785L105.579 490.035L107.996 492.453L106.996 496.785L104.829 498.953L106.996 500.285L110.163 503.285L112.163 505.285L111.33 509.619L112.247 515.285V519.869L110.497 521.619L108.83 519.785L106.33 519.453L106.663 522.453L108.08 525.369L110.163 527.453L108.496 529.119L105.663 529.453H103.33H101.497H99.9971C99.9971 529.453 97.9972 529.703 96.4142 529.703C94.8312 529.703 95.1642 528.453 95.1642 528.453L92.6642 527.785L91.4982 526.619L88.4982 526.119V528.453L86.1652 529.453L83.3322 532.785H80.1652L76.6652 533.785L74.6232 533.244L72.9152 534.953V537.703L74.6652 539.453L75.6652 542.619L74.8322 545.785L74.0822 548.703L72.1652 550.619V551.785L70.4982 553.285L66.8312 559.285V563.953L67.8312 569.619L67.1642 573.953L67.4971 579.285L63.4971 581.119L60.8301 579.953L56.9971 581.285L53.3301 580.453L52.8301 577.285L50.9971 571.785L50.6642 567.785L47.9971 565.953V563.785L46.6642 560.285L44.3312 557.285L45.8312 554.785L46.8312 551.953L44.3312 549.285L43.4982 546.285L40.6652 545.953L40.0822 544.203L37.9971 542.119L34.3301 541.619L31.9971 539.285L31.3301 533.953L28.9971 531.785L29.6642 528.453L26.8312 526.119L25.3312 522.287L22.8312 521.119L19.1642 518.619L17.9971 514.619L15.4971 510.787L14.6642 507.453L12.8312 507.119L11.4982 505.453L9.83118 503.119L7.66418 503.453L6.33118 499.453L6.83118 491.787L6.16418 486.119L4.83118 483.287L3.16418 480.787L3.49713 475.787L1.49713 473.953L0.164185 471.287L1.16418 468.287L0.331177 464.953L2.16418 463.119L4.16418 462.787L6.83118 466.119L9.33118 466.953L10.4982 464.453L13.3312 463.287L17.1642 463.119H19.1642L21.6642 463.953L22.1642 459.787L20.8312 457.287L21.4982 455.119L23.4982 455.453L25.3312 456.787L27.3312 458.619L28.8312 457.119L31.1642 458.119L34.9971 458.619L37.8301 459.787L38.4971 456.787L36.4971 455.287L33.6642 454.619L31.8312 452.787L29.8312 452.119L32.3312 449.453L35.9971 447.787L39.1642 449.119L41.9971 447.953L44.6642 450.787L48.6642 455.119L52.3312 451.453L54.8312 449.953L54.1642 446.285L56.4971 443.953L58.8301 444.287L58.6631 441.619L64.8301 440.787L65.9971 437.953L67.3301 436.287L64.4971 434.953V431.453L61.8301 428.453L60.8301 424.619L58.3301 423.119L55.6631 420.119L56.6631 416.619L55.6631 411.452L52.4971 409.12L48.8301 406.287L47.6631 402.453L45.1631 400.453L44.3301 398.12L46.4971 395.62L48.1642 391.953V388.453L46.3312 385.12L44.4982 382.287L46.1652 380.954L47.1652 378.454H49.1652L50.6652 377.121L51.8322 372.621L52.1652 369.954L50.8312 366.621L48.9971 364.787L46.4971 364.454L44.6642 362.454L43.1642 360.287L40.9142 362.203L39.1642 360.453L37.6642 357.953L39.1642 355.286L42.3312 352.119L44.4982 349.619L45.3312 346.619L47.8312 346.452L49.6642 348.452L50.6642 350.952L53.9971 352.12L57.1642 351.12L57.9971 347.787L58.9971 344.12L56.4971 341.62L58.1642 340.453L57.9971 337.62L58.9971 333.62L60.8301 329.287L62.1631 325.62L65.4962 324.62L66.6631 322.12L69.8301 319.453V313.786L66.9971 311.12L63.8301 310.287L64.8301 307.787L65.6631 305.12L63.3301 302.787L61.8301 299.454L62.3301 297.121L65.4971 293.954L67.3301 290.621L66.4971 287.621L69.1642 286.954L73.1642 284.454V280.954L74.8312 278.954L78.9971 278.787L80.8301 276.62L80.9971 274.12L84.4971 272.787L87.3301 268.954L91.1631 269.121L94.4962 267.121L98.9962 268.121L99.6631 265.621L101.163 264.121L103.996 265.454L106.329 267.954L109.997 269.12L111.33 272.12L112.663 275.453L114.663 273.453L114.33 268.62L111.33 265.953V260.286L113.997 259.62L114.83 258.787L111.163 257.287L108.996 254.787L146.329 254.62L153.329 252.12V247.787L154.496 236.787H159.163L163.163 233.62V229.287L166.163 228.12V222.453L168.83 222.286L174.663 217.619L177.496 218.952L183.663 207.452L184.08 204.369L189.163 199.286H197.663L200.33 194.619V185.619L205.663 182.952L212.663 179.452L217.496 181.285H220.33L222.663 183.618L225.525 181.624L224.829 185.118L227.662 184.785L231.662 184.952V187.619L232.495 190.619L230.662 189.452L228.745 187.535L226.995 189.285L227.828 192.452V195.619L230.661 197.119L232.828 199.286V202.786L235.245 203.953V207.87L237.995 210.62L239.328 215.287V220.12L238.495 224.287L239.495 226.62L239.578 231.703L242.495 234.62L242.328 238.287L241.661 244.287L238.744 249.37L234.327 253.787H229.66L224.493 254.787L219.993 253.12L215.076 250.37L211.997 247.286V242.786L208.83 239.619L207.33 236.119L206.163 232.786L203.997 229.12L202.83 222.953L200.497 221.953L201.247 218.203L203.164 216.286L200.831 213.953L199.748 216.87L198.165 218.453L198.832 222.12L198.915 226.37L197.082 228.203L199.499 230.62L198.832 234.287L196.499 239.454L192.416 240.704L189.166 243.954L187.916 249.871L184.833 252.954L185.833 256.454L187.333 260.787L184.916 265.037L188.333 268.454L191.997 272.12L196.164 269.12L196.997 264.954L194.83 262.787L195.163 259.12V256.287L197.996 253.287H200.829L201.829 260.787L202.746 265.704L205.663 268.621L207.496 272.454L212.246 273.871L213.663 272.454L212.496 269.621L215.329 267.288L215.496 261.455L220.663 262.288L225.496 260.455L229.496 262.622L233.996 261.205H237.079L238.997 263.12L241.83 267.453L239.497 269.786V273.453L241.58 270.87L244.497 267.953L248.497 267.12L251.83 262.287V258.12L253.163 255.287L257.496 253.12V250.453L261.663 247.953V243.786L260.996 239.786H263.829L264.746 241.869L268.496 245.619L271.329 249.952V255.785L270.329 258.785L268.829 260.285L266.329 257.785L262.829 256.952L257.496 258.785V263.118L258.829 267.118V270.451L262.662 271.451L266.329 273.118L270.496 271.118V268.118L274.829 267.118L278.996 269.118L278.329 266.451L284.829 267.618L288.329 266.951L294.662 267.784H298.329L300.162 271.117H301.829V268.117L307.162 266.45H309.997L311.164 270.783H307.997L306.997 273.783L304.497 274.616L308.33 278.116H310.997L315.997 275.949L320.747 276.866L325.914 282.033L327.664 280.283H331.164L335.581 278.866L337.331 280.616L336.831 282.949L334.164 284.782V287.615L337.331 290.282L337.581 287.199L338.998 285.782L342.331 286.615V283.948L345.498 283.448L346.165 279.448L345.665 274.615L348.665 273.115L351.248 272.365L354.331 275.448L355.664 274.115L359.081 278.365L362.998 282.282L366.165 285.449L368.248 289.699L372.165 293.616L374.832 297.783L377.665 301.616V304.949L379.997 308.62L383.33 306.62V303.12L387.163 299.62L384.496 298.787L382.663 294.454L383.33 289.787L380.163 287.62L378.413 284.037L379.996 282.454L383.329 280.787V278.12L384.162 274.12L385.662 272.12V269.62L383.495 268.953L384.662 265.62L386.495 263.287L389.828 262.12L393.411 260.37L394.661 259.12L397.494 256.287L399.661 251.454L401.328 247.454L403.161 243.454L406.328 241.787L408.328 244.62H412.328L414.328 246.62H417.828L419.328 252.287L417.661 253.954L416.911 260.037L412.161 264.787L410.828 269.12L413.661 271.62L412.661 277.287L411.828 281.787L408.495 286.787L407.328 293.954L405.495 300.287L404.162 303.454L405.412 307.871L408.329 310.788L407.829 313.455L404.162 316.288L403.495 322.455L399.828 323.455L395.495 327.788L392.995 331.455L390.662 332.788L386.495 331.955L383.995 333.622L381.245 331.872L379.495 330.122L376.995 329.289V332.456L379.495 336.289L381.995 337.456L385.328 339.789L388.161 339.622L390.161 342.455H393.161C393.161 342.455 394.411 340.205 393.744 339.538C393.077 338.871 395.494 337.788 395.494 337.788H397.661L398.661 336.788L402.828 335.621L406.161 333.788V330.288L407.661 328.788L410.244 326.205L412.327 324.122L413.327 320.122L412.494 316.622L412.161 313.455L414.411 311.205L416.661 308.955H420.161L423.994 308.455L425.077 311.705L426.66 313.288L428.66 318.455L425.997 321.12L426.164 325.12V327.62L429.497 330.953L433.33 331.786V329.453L429.58 328.37L428.163 326.953V324.953L427.83 321.953L430.497 321.12L431.497 318.953L430.497 315.786L431.664 313.119L429.997 309.786L427.83 307.786L426.497 306.453L422.414 305.036L420.081 302.703L418.164 304.62L415.664 305.787L414.331 303.954H411.331L410.831 300.787L412.831 298.787L412.331 293.454L414.664 289.787L416.164 285.454L419.497 282.121L418.33 278.454L417.33 275.287L417.747 271.871L415.33 269.454L417.997 266.787L422.164 262.62H425.664L427.664 259.453L428.997 255.953L427.83 253.12L428.997 250.62H431.664L430.831 254.12V258.953L430.164 263.286L427.164 266.286V270.453V273.453L430.664 276.12L432.664 277.787L435.247 276.204L437.83 278.787L440.663 281.454V279.454L439.58 276.871L437.663 274.954L434.663 273.454V272.121L432.163 269.621L430.997 265.953L434.497 263.62L436.164 265.287L438.831 267.954L440.831 266.121L440.164 263.954L439.914 262.037L441.831 260.12L445.164 260.787L447.914 260.37L450.164 262.62L454.497 264.953L453.33 268.286L454.413 269.369L457.33 272.286H461.83L462.497 269.619L460.664 267.119L460.831 264.786L457.664 263.619L455.331 259.786L453.997 258.453L454.997 254.453L456.497 251.12L455.164 249.787L454.331 245.62L457.664 242.62H465.497L469.497 244.12V243.12H475.997L480.33 241.287H483.496L485.163 239.62L483.496 237.12L481.496 236.453L479.829 234.786C479.829 234.786 480.496 234.119 481.746 232.869C482.996 231.619 482.996 234.119 482.996 234.119L484.996 233.619L483.663 232.119L484.58 230.036L483.163 228.619L484.83 226.286L487.163 224.453L484.83 224.286L484.663 221.786L489.33 221.953L491.163 218.12L495.746 216.37L497.496 214.62L503.746 213.703L505.329 212.12L509.829 210.787L510.829 209.62L507.829 208.62L509.496 206.953L513.829 205.953L517.496 205.453L518.329 203.62L521.329 203.12L519.746 206.12V208.537L521.829 206.454L526.997 206.62L527.497 203.953L530.83 203.286L534.163 203.953L532.663 201.953L530.663 200.453L529.663 198.62H533.33L537.163 197.453H538.33L537.997 194.62L536.663 193.62V189.62L537.497 186.953L539.997 180.786L542.997 178.619L545.663 175.786L548.997 177.786L551.497 177.453L552.247 180.87L549.663 183.453L547.497 186.286L552.788 186.578L553.83 185.536H557.08L559.497 187.953L557.33 190.12C557.33 190.12 557.163 192.287 558.163 192.287C559.163 192.287 561.83 193.454 561.83 193.454L562.663 190.621L561.163 189.121L564.83 187.121H568.163L571.58 184.704L573.497 186.621L576.08 185.371L577.997 187.288L579.663 190.621L581.663 192.288L582.83 190.955L584.58 192.705L586.83 194.955L586.497 198.455L583.163 197.788L584.497 199.121L587.83 200.954L589.913 204.537L587.997 206.453V209.786L586.33 212.119L584.747 215.369L582.83 217.286L579.497 221.286V222.953L578.497 227.62L575.997 230.12L574.997 235.287L570.997 236.287L569.747 240.037L566.997 242.787L566.33 247.12L565.497 250.12L568.497 248.787L567.83 245.454L570.83 243.621C570.83 243.621 573.497 242.788 574.997 242.788C576.497 242.788 576.997 239.788 576.997 239.788L579.83 237.455L582.497 236.455L584.08 233.372L582.83 232.122L580.83 231.955L580.997 230.62L580.83 227.953L583.33 227.786H585.33L588.163 228.453L591.497 229.786L592.163 227.786L594.247 224.869L595.997 226.619V229.952L597.997 232.785H600.33L597.997 230.62L599.58 229.037L602.663 225.954L606.83 223.787L613.163 222.62L618.163 221.12L619.414 223.037L618.247 224.204L620.997 226.954H626.163L626.33 225.621L626.83 223.788L628.83 226.955L632.33 225.622L635.83 222.622C635.83 222.622 639.497 221.955 640.33 221.955C641.163 221.955 640.33 218.955 640.33 218.955L639.83 215.622L637.33 211.789L637.997 207.956L638.497 205.956L640.497 207.956L642.58 206.373L644.33 208.123L646.997 209.956L647.663 207.956L648.997 207.62L650.33 209.12L651.663 208.12C651.663 208.12 651.497 205.037 652.747 205.037C653.997 205.037 654.33 203.454 654.33 203.454L657.997 206.287L659.163 205.12L663.163 206.453L661.83 210.536H663.746L665.663 212.453V215.62L668.83 213.62L670.497 215.287V218.954L668.33 219.621L666.997 220.953L669.33 223.286C669.33 223.286 671.163 222.453 671.163 221.619C671.163 220.785 672.663 223.119 672.663 223.119V225.786L676.08 225.702L679.33 228.952L681.83 230.619L685.33 231.286L686.83 229.786L690.663 231.786L690.997 228.62L689.33 223.12L688.33 220.62V218.287L686.163 216.12V213.12L690.33 213.62L692.663 215.953L696.33 214.953H700.497L699.663 210.62L701.997 206.287L706.33 205.287L709.497 205.12L713.163 206.12V203.62L709.247 201.87L710.663 200.453L712.497 198.453L715.663 198.62L718.163 196.12L716.997 195.453L714.497 192.953L711.663 191.453V187.786L710.497 186.786L708.83 191.119L706.83 189.786V186.286L710.497 182.953L709.997 180.62L706.497 178.453L708.663 176.286H711.83L716.497 173.953L717.83 170.12L723.997 167.787L728.83 165.62C728.83 165.62 729.497 166.287 729.497 167.287C729.497 168.287 726.33 169.454 726.33 169.454L725.163 173.954L727.997 172.62L730.497 170.12L733.663 171.12L732.83 177.62L735.663 174.953V171.786L734.663 166.453L735.33 164.12L736.83 159.953L740.33 158.286L745.33 156.119L748.33 158.286C748.33 158.286 746.913 160.203 745.83 161.286C744.747 162.369 746.997 163.12 746.997 163.12H750.663L752.997 160.453C752.997 160.453 755.663 163.286 756.163 163.786C756.663 164.286 755.663 159.953 755.663 159.953L760.163 157.453L763.33 159.12L766.83 158.954L769.997 155.787L773.33 151.62V146.787L777.497 140.62L780.997 137.12L784.163 133.287L789.663 132.454L794.247 132.204L796.497 134.454L801.163 139.121L805.33 137.288L808.33 134.871H811.58L809.997 133.287V130.953L813.163 127.787V122.287L814.663 119.454H817.163L819.33 117.287V113.954L823.497 110.954L824.497 106.954L822.83 105.287L823.497 103.287L821.164 99.9539L822.997 96.6199L824.747 94.8699L827.914 98.0369L825.497 100.454L827.997 102.954H831.83L834.497 101.954L838.164 100.287L841.497 99.4539L842.33 96.7869L841.33 94.1199L839.497 93.7869L833.83 91.2869L829.664 91.9539L828.664 89.6209H825.33V87.7879L826.164 84.6209L829.164 83.1209L829.497 79.6209L832.164 78.1209H834.497L833.497 75.2879L834.497 72.2879L837.33 68.1199Z" fill="url(#russia_map_gradient)"/>
  <path d="M900.812 373.931L899.658 374.22L898.794 371.768V369.605L902.543 370.614L904.417 371.479L905.427 373.787L907.446 375.806L911.051 376.527L911.916 378.834L915.953 381.43H918.116L919.846 383.881L921.288 387.775L923.523 390.009L927.777 394.408L930.516 395.129L934.266 396.571L937.871 399.744L942.774 402.483L945.946 405.223L950.129 407.386L953.733 409.549L956.041 411.423L960.078 413.01L959.502 414.885L958.061 416.326L955.321 417.191H953.158L953.735 420.219L953.158 422.382V424.112L955.609 427.862C955.609 427.862 957.918 430.456 957.484 430.889C957.05 431.322 957.629 435.36 957.629 435.36L959.504 437.235L962.388 440.12L964.839 441.706H968.588L970.751 443.868H973.202L974.5 446.608L977.673 446.753L979.619 444.806L983.008 446.753L985.028 449.349C985.028 449.349 985.75 451.079 985.028 451.079C984.306 451.079 980.413 449.204 980.413 449.204L978.755 450.862H975.078L973.925 453.819L974.646 456.702L976.953 459.009L978.683 462.759L976.376 464.634L974.501 462.327L972.05 459.874L967.724 455.837V453.097L964.84 450.214L962.101 447.474L960.226 445.023L957.918 440.552L955.034 437.812L952.006 436.082L949.122 435.217L946.669 430.026L941.334 422.672L937.008 418.345L933.404 414.741L930.23 410.415L928.211 407.099L922.732 404.647L918.406 402.773L915.81 402.484L912.349 397.725V395.563L908.6 391.813L906.581 388.064L902.543 386.766L903.553 383.882V381.719L906.869 382.728L907.446 379.844L905.5 377.898V376.816L903.589 374.904L900.812 373.931V373.931Z" fill="url(#russia_map_gradient)"/>

  <defs>
    <linearGradient id="russia_map_gradient" x1="50%" y1="0%" x2="50%" y2="100%" > 
        <stop offset="0%" stop-color="#7A5FFF">
            <animate attributeName="stop-color" values="#7A5FFF; #01FF89; #7A5FFF" dur="8s" repeatCount="3"></animate>
        </stop>
        <stop offset="100%" stop-color="#01FF89">
            <animate attributeName="stop-color" values="#01FF89; #7A5FFF; #01FF89" dur="13s" repeatCount="3"></animate>
        </stop>
    </linearGradient> 
    <filter id="filter0_f" x="0" y="0" width="1014.5" height="614.5" filterUnits="userSpaceOnUse" color-interpolation-filters="sRGB">
    <feFlood flood-opacity="0" result="BackgroundImageFix"/>
    <feBlend mode="normal" in="SourceGraphic" in2="BackgroundImageFix" result="shape"/>
    <feGaussianBlur stdDeviation="17" result="effect1_foregroundBlur"/>
  </filter>
  </defs>
</svg>